<svg id="Camada_1" data-name="Camada 1" xmlns="http://www.w3.org/2000/svg" viewBox="0 0 729.3 210.4"><defs><style>.cls-1{fill:#252525;}</style></defs><path class="cls-1" d="M-342.9-71c-12.9,5.9-38.6,29.8-37.1,54s18,28.9,18,28.9c4.7.3,4.7-2.6,4.7-2.6s-8.6-9.8-6.2-33.1,20.4-36,20.4-36V48.5c0,22.7-3.9,32.4-6.5,39.2,23.6-.3,25-43.3,25-43.3V-56.8C-324.6-72.2-332.2-71-342.9-71Z" transform="translate(380.1 73.9)"/><path class="cls-1" d="M349.2,37.5l-3.5-.3c-.5,7.6-6.6,21.2-11.4,21S327.1,56,325,44.6,323.4,14,323.8-2.2s-5-19.4-12.7-20.3-10.3,4.7-12.7,11-13.5,38.9-13.5,38.9-.8-16.6-1-29.9-4.7-20.8-14.1-20.8S258.3-11.8,258-11l-9.9,24.1v-26c0-12.1-18.3-10.3-18.3-10.3V36.4s-3.5,23.3-13.6,23.3-10.3-22.4-10.3-22.4V-10.8c0-13.9-13.9-10-15-10.6s-2.1,3.5-3,5.9c-15.3-14.2-31.9-8-40.1,6.5s-10.4,38.6-6.5,56.3c-1.5,10.6-10.9,11.2-10.9,11.2-9.5,0-10-13.8-10-13.8-3-22.2,2.9-44.9,3.5-54.3s-14.8-8.9-20.7-4.7-8.2-.6-8.2-.6S92-28.5,80.5-27.6s-10,16.8-7.4,19.4,3,8,.9,19.2S55.1,45.2,55.1,45.2s.3-39.2.3-56-18.5-9.7-18.5-9.7l-.6,6.1C16.2-36.8.8-15.8.8-15.8c-20.9,25.1-12.6,58.4-12,62.2s-3.3,13.3-12.4,13.3-8.9-16.8-8.9-16.8V-12.6c0-12.1-17.4-9.4-17.4-9.4v7.4s-12.7-22.5-33-7.7-18,57.2-18.3,58.1-7.7,18.9-15.9,18.9-8-20.1-8-20.1V-26.7h18.3c13.3,0,10.9-13,10.9-13h-27.4V-66.6c-3.4-3.4-10.7-7.3-15.1-7.3s-7.4,4.1-7.4,4.1v28.9h-18c-7,0-5.9,13.6-5.9,13.6h23.9V11.9c0,16.2-8.8,26.9-15.3,34.2,3.8-18.8-14.2-32.7-24.5-38.6s-1.2-12.7,2.4-18.6,4.4-13.3-7.4-13.3S-209.5-16.1-211.3-7s5,15.1,4.2,18.6-21.6,33.9-25.7,39.6-5.6-5.7-5.6-5.7V-13.2s-4.4-6.8-9.7-8.8-16.6-2.7-23.6,10.3-18,35.7-18,35.7V-13.2c0-11.5-16-9.7-16-9.7V57.6s-.6,12.1,9.8,12.1l8.2-.3c3.3-45.1,22.5-67.5,26.9-73.4s3.5.9,3.5.9V47c0,17.4,10.6,30.7,26.3,16s31.2-47.3,31.2-47.3c2.7,6.5,11.8,8,18,19.2s-1.1,20.7-9.7,21-7.4-8-12.7-7.7-13,8-5.3,15.3,24.5,5.4,24.5,5.4c28.9,0,38.6-34.3,38.6-34.3,1.5,13,3.3,34.3,22.2,34.3s24.8-23.1,24.8-23.1S-93,68.9-72.9,68.9a27.3,27.3,0,0,0,26-17.2c1.7,9.2,8.8,18,19.7,18S-8,55.6-8,55.6A21.7,21.7,0,0,0,12.7,69.2C28.6,69.2,37.2,55,37.2,55v7.7S26.5,75.3,13,88.9c-17.4,17.4-26,47.5,8.2,47.5S54.6,99.2,54.6,99.2s1.7-15.3,0-41C77,39.9,85.8,7.2,87,3.4S94.1-2,94.1-2H108a117.4,117.4,0,0,0-6.2,35.7c-.3,20.1,8.5,36.3,21.8,36.3s20.7-13.8,20.7-13.8,3.5,12.7,22.7,12.7,26.4-20.3,26.4-20.3,5.3,20.5,18.6,20.5,19.3-14.8,19.3-14.8.5,12.8,0,12.8h21V43.7c0-19.3,7.9-34.8,11.9-42.1s5.7-.6,5.7-.6,0,.6.4,27.8S277.9,62,284.2,62s5.7-5.4,7.5-15.3c2.2-23.9,16.1-48.4,16.1-48.4V33.2c0,6.2-.6,36.2,21,36.2S349.2,37.5,349.2,37.5ZM-51.1,24.3c-1.7,21.8-10.2,32.5-17.1,32.5s-14-15.5-13-34S-72.8-9.9-66-9.9C-56.1-9.9-49.2,1-51.1,24.3Zm86.8,0C33.9,46.1,25.4,56.8,18.6,56.8s-14.1-15.5-13-34S13.9-9.9,20.8-9.9C30.7-9.9,37.6,1,35.7,24.3Zm-12,100.3c-21.4,2.4-12.5-16.2-6.5-24.2S39.6,77.5,39.6,77.5,42.3,122.5,23.7,124.6ZM188.2,24.3c-1.8,21.8-10.3,32.5-17.1,32.5s-14-15.5-13-34,8.4-32.7,15.2-32.7C183.2-9.9,190.1,1,188.2,24.3Z" transform="translate(380.1 73.9)"/></svg>