<svg id="Camada_1" data-name="Camada 1" xmlns="http://www.w3.org/2000/svg" viewBox="0 0 96.91 94.49"><defs><style>.cls-1{fill:#010101;stroke:#1d1d1c;stroke-miterlimit:10;stroke-width:3px;}</style></defs><path class="cls-1" d="M48.2,66.51,21.9,41.21A37.6,37.6,0,0,0,30.61,17.1,37.82,37.82,0,0,0-7.16-20.68,37.83,37.83,0,0,0-44.94,17.1,37.83,37.83,0,0,0-7.16,54.88a37.67,37.67,0,0,0,25.61-10L44.74,70.12a2.5,2.5,0,0,0,3.46-3.61ZM-39.94,17.1A32.82,32.82,0,0,1-7.16-15.68,32.81,32.81,0,0,1,25.61,17.1,32.81,32.81,0,0,1-7.16,49.88,32.81,32.81,0,0,1-39.94,17.1Z" transform="translate(46.44 22.18)"/></svg>